<svg id="Capa_1" enable-background="new 0 0 497 497" height="512" viewBox="0 0 497 497" width="512" xmlns="http://www.w3.org/2000/svg"><g><path d="m112.5 196v30l60 60h-95.32l-47.18-30v-44.17l-14-7.39c-9.84-5.19-16-15.4-16-26.53v-4.41c0-4.142 3.358-7.5 7.5-7.5h75c16.569 0 30 13.431 30 30z" fill="#f02e0e"/><path d="m77.18 256v30h-39.68c-4.142 0-7.5-3.358-7.5-7.5v-22.5z" fill="#d40000"/><path d="m278.5 173.5v67.5h-90l60-75h22.5c4.142 0 7.5 3.358 7.5 7.5z" fill="#f02e0e"/><path d="m248.5 226v-60c-14.64 0-29.05 3.57-42 10.4l-94 49.6v60l15 15h257v-75z" fill="#ff5c1c"/><path d="m481 270.06s-14.212-7.5-30-15.832l16 61.772h22.5c4.142 0 7.5-3.358 7.5-7.5v-11.91c0-11.13-6.16-21.34-16-26.53z" fill="#ffa433"/><path d="m451 254.228c-19.696-10.394-41.93-22.128-41.93-22.128h-49.14l-82.43 43.5c-12.95 6.83-27.36 10.4-42 10.4h-123v30h354.5v-35.242c0-11.13-6.16-21.34-16-26.53z" fill="#ffc43b"/><path d="m384.5 226v105c28.995 0 52.5-23.505 52.5-52.5s-23.505-52.5-52.5-52.5z" fill="#343840"/><path d="m407 278.5c0-28.995-10.074-52.5-22.5-52.5-28.995 0-52.5 23.505-52.5 52.5s23.505 52.5 52.5 52.5c12.426 0 22.5-23.505 22.5-52.5z" fill="#41494e"/><circle cx="384.5" cy="278.5" fill="#c9f8ff" r="22.5"/><path d="m112.5 226v105c28.995 0 52.5-23.505 52.5-52.5s-23.505-52.5-52.5-52.5z" fill="#343840"/><path d="m135 278.5c0-28.995-10.074-52.5-22.5-52.5-28.995 0-52.5 23.505-52.5 52.5s23.505 52.5 52.5 52.5c12.426 0 22.5-23.505 22.5-52.5z" fill="#41494e"/><circle cx="112.5" cy="278.5" fill="#c9f8ff" r="22.5"/></g></svg>